<svg xmlns="http://www.w3.org/2000/svg" width="1200" height="800" viewBox="0 0 1200 800" role="img" aria-hidden="true">
  <defs>
    <linearGradient id="bg3" x1="0%" y1="0%" x2="100%" y2="100%">
      <stop offset="0%" style="stop-color:#0d1117"/>
      <stop offset="100%" style="stop-color:#151b24"/>
    </linearGradient>
    <linearGradient id="accent3" x1="0%" y1="100%" x2="100%" y2="0%">
      <stop offset="0%" style="stop-color:#1a3d5c;stop-opacity:0.12"/>
      <stop offset="100%" style="stop-color:#2d5a87;stop-opacity:0.32"/>
    </linearGradient>
  </defs>
  <rect width="1200" height="800" fill="url(#bg3)"/>
  <rect width="1200" height="800" fill="url(#accent3)"/>
  <g fill="none" stroke="#3a6d9e" stroke-width="1" opacity="0.35">
    <rect x="140" y="120" width="920" height="90" rx="2"/>
    <rect x="140" y="240" width="920" height="200" rx="2"/>
    <rect x="140" y="470" width="440" height="210" rx="2"/>
    <rect x="620" y="470" width="440" height="210" rx="2"/>
  </g>
  <g stroke="#4a8bc8" stroke-width="1.2" opacity="0.45">
    <line x1="600" y1="240" x2="600" y2="440"/>
    <line x1="380" y1="470" x2="380" y2="680"/>
    <line x1="820" y1="470" x2="820" y2="680"/>
  </g>
  <g fill="#4a8bc8" opacity="0.15">
    <rect x="160" y="260" width="200" height="24" rx="1"/>
    <rect x="160" y="300" width="320" height="24" rx="1"/>
    <rect x="160" y="340" width="260" height="24" rx="1"/>
    <rect x="720" y="260" width="280" height="24" rx="1"/>
    <rect x="720" y="300" width="200" height="24" rx="1"/>
  </g>
  <g fill="none" stroke="#2d5580" stroke-width="0.75" opacity="0.3">
    <line x1="120" y1="400" x2="1080" y2="400"/>
  </g>
</svg>
