<svg xmlns="http://www.w3.org/2000/svg" width="1200" height="800" viewBox="0 0 1200 800" role="img" aria-hidden="true">
  <defs>
    <linearGradient id="bg1" x1="0%" y1="0%" x2="100%" y2="100%">
      <stop offset="0%" style="stop-color:#0d1117"/>
      <stop offset="100%" style="stop-color:#151b24"/>
    </linearGradient>
    <linearGradient id="accent1" x1="0%" y1="0%" x2="0%" y2="100%">
      <stop offset="0%" style="stop-color:#2d5a87;stop-opacity:0.35"/>
      <stop offset="100%" style="stop-color:#1a3d5c;stop-opacity:0.08"/>
    </linearGradient>
  </defs>
  <rect width="1200" height="800" fill="url(#bg1)"/>
  <rect width="1200" height="800" fill="url(#accent1)"/>
  <g fill="none" stroke="#3a6d9e" stroke-width="1.2" opacity="0.45">
    <path d="M100 400 L300 220 L520 380 L720 200 L920 420 L1100 280"/>
    <path d="M300 220 L300 580 M520 380 L520 620 M720 200 L720 520 M920 420 L920 680"/>
    <path d="M180 620 L440 480 L680 560 L1000 480"/>
  </g>
  <g fill="#4a8bc8" opacity="0.85">
    <circle cx="300" cy="220" r="7"/>
    <circle cx="520" cy="380" r="7"/>
    <circle cx="720" cy="200" r="7"/>
    <circle cx="920" cy="420" r="7"/>
    <circle cx="440" cy="480" r="5"/>
    <circle cx="680" cy="560" r="5"/>
  </g>
  <g fill="none" stroke="#2d5580" stroke-width="0.8" opacity="0.25">
    <line x1="0" y1="200" x2="1200" y2="200"/>
    <line x1="0" y1="400" x2="1200" y2="400"/>
    <line x1="0" y1="600" x2="1200" y2="600"/>
  </g>
</svg>
